<svg width="1214" height="331" viewBox="0 0 1214 331" fill="none" xmlns="http://www.w3.org/2000/svg">
<path d="M366.2 174.4C366.2 176.3 364.6 177.9 362.6 177.9H296.3C298 194.3 310.3 209.3 327.7 209.3C339.6 209.3 348.4 204.8 355 195.3C355.7 194.3 356.7 193.6 357.9 193.6C359.8 193.6 361.2 195 361.2 196.9C361.2 197.6 361 198.1 360.7 198.6C354 210.2 340.7 215.9 327.7 215.9C305.4 215.9 289.4 195.9 289.4 174.6C289.4 153.2 305.3 133.3 327.7 133.3C350 133.3 366.1 153.1 366.2 174.4V174.4ZM359.1 171.3C357.7 154.9 345.1 139.9 327.7 139.9C310.3 139.9 298 154.9 296.3 171.3H359.1Z" fill="#3B3B3B"/>
<path d="M446.8 134.9C448.7 134.9 450.1 136.6 450.1 138.2C450.1 140.1 448.7 141.5 446.8 141.5H429V211.4C429 213.1 427.6 214.7 425.7 214.7C423.8 214.7 422.4 213 422.4 211.4V141.5H405.3C403.4 141.5 402 140.1 402 138.2C402 136.5 403.4 134.9 405.3 134.9H422.4V109.4C422.4 107.7 423.7 106.1 425.4 105.9C427.5 105.7 429.1 107.2 429.1 109.2V134.9H446.8Z" fill="#3B3B3B"/>
<path d="M555.3 168.7V211C555.3 212.9 553.6 214.3 552 214.3C550.1 214.3 548.7 212.9 548.7 211V168.7C548.7 154.4 540.6 140.2 524.7 140.2C504.3 140.2 495.5 158 496.7 176.3C496.7 176.8 496.9 178.9 496.9 179.2V210.9C496.9 212.6 495.6 214.2 493.9 214.4C491.8 214.6 490.2 213.1 490.2 211.1V72C490.2 70.3 491.6 68.7 493.5 68.7C495.4 68.7 496.8 70.4 496.8 72V150.6C502.5 140.4 512.7 133.5 524.6 133.5C544.2 133.5 555.3 150.6 555.3 168.7V168.7Z" fill="#3B3B3B"/>
<path d="M674.401 174.4C674.401 176.3 672.801 177.9 670.801 177.9H604.501C606.201 194.3 618.501 209.3 635.901 209.3C647.801 209.3 656.601 204.8 663.201 195.3C663.901 194.3 664.901 193.6 666.101 193.6C668.001 193.6 669.401 195 669.401 196.9C669.401 197.6 669.201 198.1 668.901 198.6C662.201 210.2 648.901 215.9 635.901 215.9C613.601 215.9 597.601 195.9 597.601 174.6C597.601 153.2 613.501 133.3 635.901 133.3C658.101 133.3 674.301 153.1 674.401 174.4ZM667.201 171.3C665.801 154.9 653.201 139.9 635.801 139.9C618.401 139.9 606.101 154.9 604.401 171.3H667.201Z" fill="#3B3B3B"/>
<path d="M755.901 138C755.901 140.1 754.701 141.3 752.801 141.6C733.301 144.5 724.501 160.4 724.501 178.9V210.6C724.501 212.3 723.201 213.9 721.501 214.1C719.401 214.3 717.801 212.8 717.801 210.8V138.5C717.801 136.8 719.101 135.2 720.801 135C722.901 134.8 724.501 136.3 724.501 138.3V153C730.001 143.7 740.901 134.9 752.301 134.9C754.001 134.9 755.901 136.1 755.901 138V138Z" fill="#3B3B3B"/>
<path d="M864.901 174.4C864.901 176.3 863.301 177.9 861.301 177.9H795.001C796.701 194.3 809.001 209.3 826.401 209.3C838.301 209.3 847.101 204.8 853.701 195.3C854.401 194.3 855.401 193.6 856.601 193.6C858.501 193.6 859.901 195 859.901 196.9C859.901 197.6 859.701 198.1 859.401 198.6C852.701 210.2 839.401 215.9 826.401 215.9C804.101 215.9 788.101 195.9 788.101 174.6C788.101 153.2 804.001 133.3 826.401 133.3C848.701 133.3 864.801 153.1 864.901 174.4V174.4ZM857.801 171.3C856.401 154.9 843.801 139.9 826.401 139.9C809.001 139.9 796.701 154.9 795.001 171.3H857.801Z" fill="#3B3B3B"/>
<path d="M972.101 138.8V161.7V211.4C972.101 213.3 970.401 214.7 968.801 214.7C966.901 214.7 965.501 213.3 965.501 211.4V197.6C960.001 208.5 950.301 216.4 937.901 216.4C918.201 216.4 907.301 199.3 907.301 181.2V138.7C907.301 137 908.701 135.4 910.601 135.4C912.501 135.4 913.901 137.1 913.901 138.7V181.2C913.901 195.5 922.001 209.7 937.901 209.7C960.201 209.7 965.501 188.8 965.501 165.7V138.6C965.501 136.6 967.601 134.6 970.001 135.5C971.301 136.1 972.101 137.4 972.101 138.8V138.8Z" fill="#3B3B3B"/>
<path d="M1140 168.4V210.9C1140 212.8 1138.3 214.2 1136.7 214.2C1134.8 214.2 1133.4 212.8 1133.4 210.9V168.4C1133.4 154.1 1125.3 140.1 1109.4 140.1C1089.4 140.1 1081.8 161.5 1081.8 178.1V210.9C1081.8 212.8 1080.1 214.2 1078.5 214.2C1076.6 214.2 1075.2 212.8 1075.2 210.9V168.4C1075.2 154.1 1067.1 140.1 1051.2 140.1C1031 140.1 1022.7 156 1023.4 177.2C1023.4 177.7 1023.6 178.6 1023.4 178.9V210.8C1023.4 212.5 1022.1 214.1 1020.4 214.3C1018.3 214.5 1016.7 213 1016.7 211V138.5C1016.7 136.8 1018 135.2 1019.7 135C1021.8 134.8 1023.4 136.3 1023.4 138.3V150.4C1029.1 140.2 1039.3 133.5 1051.2 133.5C1064.7 133.5 1075.2 142.1 1079.5 154.6C1085 142.2 1095.7 133.5 1109.4 133.5C1128.9 133.5 1140 150.4 1140 168.4V168.4Z" fill="#3B3B3B"/>
<path opacity="0.6" d="M143 118.8L60 156.5L143 205.6L226.1 156.5L143 118.8Z" fill="black"/>
<path opacity="0.45" d="M60 156.5L143 205.6V118.8V18.7L60 156.5Z" fill="black"/>
<path opacity="0.8" d="M143 18.7V118.8V205.6L226.1 156.5L143 18.7Z" fill="black"/>
<path opacity="0.45" d="M60 172.3L143 289.3V221.3L60 172.3Z" fill="black"/>
<path opacity="0.8" d="M143 221.3V289.3L226.1 172.3L143 221.3Z" fill="black"/>
</svg>
