<svg width="1280" height="1067" viewBox="0 0 1280 1067" fill="none" xmlns="http://www.w3.org/2000/svg">
<path fill-rule="evenodd" clip-rule="evenodd" d="M995.328 980.929V582.506C995.328 582.506 803.059 654.851 640.313 680.851C477.568 706.851 391.961 718.02 285.299 716.155C285.299 829.405 285.299 980.929 285.299 980.929H995.328ZM995.328 439.566C995.328 217.543 836.382 85.7368 640.313 85.7368C444.245 85.7368 285.299 245.281 285.299 467.304C285.299 467.304 285.299 547.148 285.299 583.767C349.16 587.55 513.427 567.969 635.278 544.681C819.995 509.377 995.328 439.566 995.328 439.566Z" fill="black"/>
<path fill-rule="evenodd" clip-rule="evenodd" d="M995.328 980.929V582.506C995.328 582.506 803.059 654.851 640.313 680.851C477.568 706.851 391.961 718.02 285.299 716.155C285.299 829.405 285.299 980.929 285.299 980.929H995.328ZM995.328 439.566C995.328 217.543 836.382 85.7368 640.313 85.7368C444.245 85.7368 285.299 245.281 285.299 467.304C285.299 467.304 285.299 547.148 285.299 583.767C349.16 587.55 513.427 567.969 635.278 544.681C819.995 509.377 995.328 439.566 995.328 439.566Z" fill="black"/>
<path fill-rule="evenodd" clip-rule="evenodd" d="M212.281 453.902C212.281 191.929 403.917 0 640.314 0C876.711 0 1068.35 141.495 1068.35 403.467L1025.55 426.088C1025.55 186.439 851.945 47.9118 637.795 47.9118C423.648 47.9118 250.049 221.742 250.049 461.391V582.506L212.281 579.984V453.902ZM1025.55 569.897V1018.76H250.049V716.155L212.281 713.633V1066.67H1068.35V552.247L1025.55 569.897Z" fill="black"/>
<path fill-rule="evenodd" clip-rule="evenodd" d="M212.281 453.902C212.281 191.929 403.917 0 640.314 0C876.711 0 1068.35 141.495 1068.35 403.467L1025.55 426.088C1025.55 186.439 851.945 47.9118 637.795 47.9118C423.648 47.9118 250.049 221.742 250.049 461.391V582.506L212.281 579.984V453.902ZM1025.55 569.897V1018.76H250.049V716.155L212.281 713.633V1066.67H1068.35V552.247L1025.55 569.897Z" fill="black"/>
<path d="M662.822 568.41C362.499 631.934 106.801 625.915 91.6777 554.992C84.7409 522.415 132.653 494.075 212.508 453.507L214.201 419.042C74.9513 482.675 -10.9135 539.934 1.11988 596.347C22.1347 694.926 325.183 714.385 678.03 639.769C1030.85 565.158 1299.86 424.732 1278.85 326.139C1266.81 269.696 1161.99 259.998 1008.71 258.209L1021.08 285.212C1110.62 289.958 1166.17 294.182 1179.23 324.973C1194.34 395.907 963.135 504.909 662.822 568.41Z" fill="black"/>
</svg>
