<svg width="916" height="922" viewBox="0 0 916 922" fill="none" xmlns="http://www.w3.org/2000/svg">
<path fill-rule="evenodd" clip-rule="evenodd" d="M706.984 777.353V496.567C706.984 496.567 572.258 547.552 458.22 565.875C344.182 584.199 284.195 592.07 209.455 590.755C209.455 670.567 209.455 777.353 209.455 777.353H706.984ZM706.984 395.831C706.984 239.362 595.608 146.472 458.22 146.472C320.831 146.472 209.455 258.91 209.455 415.379C209.455 415.379 209.455 471.649 209.455 497.456C254.204 500.122 369.309 486.322 454.691 469.91C584.126 445.03 706.984 395.831 706.984 395.831Z" fill="#7429E9"/>
<path fill-rule="evenodd" clip-rule="evenodd" d="M158.29 405.934C158.29 221.311 292.572 86.0499 458.219 86.0499C623.866 86.0499 758.148 185.768 758.148 370.39L728.157 386.332C728.157 217.441 606.512 119.815 456.454 119.815C306.398 119.815 184.754 242.321 184.754 411.212V496.567L158.29 494.79V405.934ZM728.157 487.681V804.01H184.754V590.755L158.29 588.978V837.777H758.148V475.242L728.157 487.681Z" fill="#7429E9"/>
<path d="M473.992 486.633C263.55 531.401 84.3789 527.159 73.7815 477.177C68.9208 454.218 102.493 434.246 158.449 405.656L159.636 381.367C62.0611 426.211 1.89426 466.565 10.3262 506.321C25.0517 575.794 237.402 589.507 484.648 536.922C731.878 484.341 920.376 385.376 905.651 315.894C897.216 276.116 823.768 269.282 716.36 268.021L725.025 287.051C787.767 290.396 826.694 293.373 835.846 315.072C846.437 365.063 684.425 441.881 473.992 486.633Z" fill="#7429E9"/>
</svg>
