<svg width="1280" height="1067" viewBox="0 0 1280 1067" fill="none" xmlns="http://www.w3.org/2000/svg">
<path fill-rule="evenodd" clip-rule="evenodd" d="M995.328 981.095V582.672C995.328 582.672 803.059 655.017 640.313 681.017C477.568 707.018 391.961 718.186 285.299 716.321C285.299 829.571 285.299 981.095 285.299 981.095H995.328ZM995.328 439.732C995.328 217.709 836.382 85.9028 640.313 85.9028C444.245 85.9028 285.299 245.447 285.299 467.47C285.299 467.47 285.299 547.314 285.299 583.933C349.16 587.716 513.427 568.135 635.278 544.847C819.995 509.543 995.328 439.732 995.328 439.732Z" fill="white"/>
<path fill-rule="evenodd" clip-rule="evenodd" d="M995.328 981.095V582.672C995.328 582.672 803.059 655.017 640.313 681.017C477.568 707.018 391.961 718.186 285.299 716.321C285.299 829.571 285.299 981.095 285.299 981.095H995.328ZM995.328 439.732C995.328 217.709 836.382 85.9028 640.313 85.9028C444.245 85.9028 285.299 245.447 285.299 467.47C285.299 467.47 285.299 547.314 285.299 583.933C349.16 587.716 513.427 568.135 635.278 544.847C819.995 509.543 995.328 439.732 995.328 439.732Z" fill="url(#paint0_linear_12_26)"/>
<path fill-rule="evenodd" clip-rule="evenodd" d="M212.281 454.068C212.281 192.095 403.917 0.166016 640.314 0.166016C876.711 0.166016 1068.35 141.661 1068.35 403.633L1025.55 426.254C1025.55 186.605 851.945 48.0778 637.795 48.0778C423.648 48.0778 250.049 221.908 250.049 461.557V582.672L212.281 580.15V454.068ZM1025.55 570.063V1018.92H250.049V716.321L212.281 713.799V1066.83H1068.35V552.413L1025.55 570.063Z" fill="white"/>
<path fill-rule="evenodd" clip-rule="evenodd" d="M212.281 454.068C212.281 192.095 403.917 0.166016 640.314 0.166016C876.711 0.166016 1068.35 141.661 1068.35 403.633L1025.55 426.254C1025.55 186.605 851.945 48.0778 637.795 48.0778C423.648 48.0778 250.049 221.908 250.049 461.557V582.672L212.281 580.15V454.068ZM1025.55 570.063V1018.92H250.049V716.321L212.281 713.799V1066.83H1068.35V552.413L1025.55 570.063Z" fill="url(#paint1_linear_12_26)"/>
<path d="M662.822 568.576C362.499 632.1 106.801 626.081 91.6777 555.158C84.7409 522.581 132.653 494.241 212.508 453.673L214.201 419.208C74.9513 482.841 -10.9135 540.1 1.11988 596.513C22.1347 695.092 325.183 714.551 678.03 639.935C1030.85 565.324 1299.86 424.898 1278.85 326.305C1266.81 269.862 1161.99 260.164 1008.71 258.375L1021.08 285.378C1110.62 290.124 1166.17 294.348 1179.23 325.139C1194.34 396.073 963.135 505.075 662.822 568.576Z" fill="url(#paint2_linear_12_26)"/>
<defs>
<linearGradient id="paint0_linear_12_26" x1="995.328" y1="69.5224" x2="227.531" y2="181.007" gradientUnits="userSpaceOnUse">
<stop stop-color="#ECECEC" stop-opacity="0.65"/>
<stop offset="0.442706" stop-color="white"/>
<stop offset="1" stop-color="#FEFEFE" stop-opacity="0.85"/>
</linearGradient>
<linearGradient id="paint1_linear_12_26" x1="1068.35" y1="-19.3521" x2="143.088" y2="116.588" gradientUnits="userSpaceOnUse">
<stop stop-color="#ECECEC" stop-opacity="0.65"/>
<stop offset="0.442706" stop-color="white"/>
<stop offset="1" stop-color="#FEFEFE" stop-opacity="0.85"/>
</linearGradient>
<linearGradient id="paint2_linear_12_26" x1="1280" y1="250.563" x2="193.876" y2="846.698" gradientUnits="userSpaceOnUse">
<stop stop-color="#ECECEC" stop-opacity="0.65"/>
<stop offset="0.442706" stop-color="white"/>
<stop offset="1" stop-color="#FEFEFE" stop-opacity="0.85"/>
</linearGradient>
</defs>
</svg>
