<svg width="91" height="104" viewBox="0 0 91 104" fill="none" xmlns="http://www.w3.org/2000/svg">
<path fill-rule="evenodd" clip-rule="evenodd" d="M18.0859 53.2231C18.0859 39.1173 29.6843 27.625 43.9821 27.625C58.255 27.625 69.8782 39.1155 69.8782 53.2231V53.2656L69.8347 54.6757C69.814 55.2516 69.5757 56.3213 68.47 56.9783C67.5441 57.5285 66.66 57.3623 66.4482 57.3193C65.951 57.2182 65.5923 56.9978 65.5603 56.9781L65.5581 56.9768C65.3955 56.8812 65.2602 56.779 65.2267 56.7537L65.2224 56.7504C65.1641 56.7066 65.0724 56.6349 64.9961 56.5753C64.9644 56.5505 64.9353 56.5277 64.9124 56.51C64.6992 56.3445 64.399 56.1173 64.0108 55.8598C63.2283 55.3408 62.1015 54.7074 60.6999 54.2618C58.0295 53.4128 54.1333 53.1572 49.3322 56.2425C44.4656 60.3443 43.9191 64.7649 44.4674 68.238C44.7543 70.0553 45.3547 71.6431 45.891 72.792C46.1567 73.3611 46.4019 73.8125 46.5778 74.1225C46.6459 74.2426 46.6998 74.3349 46.7493 74.4197C46.7662 74.4486 46.7826 74.4766 46.7988 74.5045C46.8208 74.5424 46.8699 74.6266 46.9133 74.7089L46.9149 74.712C46.9298 74.74 46.9995 74.8716 47.0632 75.0382C47.0632 75.0382 47.0644 75.0413 47.0653 75.0435C47.086 75.0967 47.2088 75.4119 47.2394 75.8262C47.2525 76.0034 47.293 76.6561 46.9022 77.3633C46.7024 77.6742 46.1529 78.2315 45.8051 78.4586C45.4488 78.6243 44.754 78.7941 44.4308 78.8125H43.2976L43.2589 78.8114C29.2962 78.4317 18.0859 67.1146 18.0859 53.2231ZM43.9821 33.1889C32.7981 33.1889 23.7155 42.1855 23.7155 53.2231C23.7155 62.8826 30.6445 70.9536 39.8519 72.8406C39.4697 71.7401 39.1231 70.477 38.9051 69.0958C38.1035 64.0185 39.0901 57.4732 45.8358 51.8781L45.9589 51.776L46.093 51.6884C52.5067 47.4979 58.2505 47.6384 62.424 48.9653C62.9438 49.1306 63.4355 49.3128 63.8977 49.5047C62.126 40.2354 53.8602 33.1889 43.9821 33.1889ZM68.625 52.3179C68.6426 52.3306 68.6465 52.334 68.6325 52.3235C68.63 52.3216 68.6275 52.3198 68.625 52.3179Z" fill="url(#paint0_linear)"/>
<path fill-rule="evenodd" clip-rule="evenodd" d="M73.8992 71.3882C70.778 80.7569 60.5575 85.8666 51.0774 82.7945C41.5752 79.7152 36.4289 69.6104 39.5512 60.2385C42.6724 50.8703 52.8783 45.7554 62.373 48.8323C71.8592 51.9064 77.0237 62.0099 73.8992 71.3882ZM68.6206 69.6682C66.4586 76.1573 59.3742 79.6991 52.808 77.5712C46.2298 75.4395 42.6679 68.4478 44.8299 61.9586C46.9926 55.4671 54.0643 51.9238 60.6424 54.0555C67.2087 56.1834 70.7833 63.1767 68.6206 69.6682Z" fill="url(#paint1_linear)"/>
<path fill-rule="evenodd" clip-rule="evenodd" d="M83.4385 97.0682V44.805C83.4385 25.1279 69.7335 6.93176 45.2155 6.93176C20.6975 6.93176 6.99251 25.1279 6.99251 44.805V97.0682H83.4385ZM45.2155 0C20.2437 0 0 20.0599 0 44.805V97.8823C0 101.261 2.76406 104 6.17369 104H84.2573C87.6669 104 90.431 101.261 90.431 97.8823V44.805C90.431 20.0599 70.1873 0 45.2155 0Z" fill="url(#paint2_linear)"/>
<defs>
<linearGradient id="paint0_linear" x1="15.3291" y1="9" x2="89.1466" y2="104.91" gradientUnits="userSpaceOnUse">
<stop stop-color="#8256F3"/>
<stop offset="1" stop-color="#50E7FF"/>
</linearGradient>
<linearGradient id="paint1_linear" x1="15.3291" y1="9" x2="89.1466" y2="104.91" gradientUnits="userSpaceOnUse">
<stop stop-color="#8256F3"/>
<stop offset="1" stop-color="#50E7FF"/>
</linearGradient>
<linearGradient id="paint2_linear" x1="15.3291" y1="9" x2="89.1466" y2="104.91" gradientUnits="userSpaceOnUse">
<stop stop-color="#8256F3"/>
<stop offset="1" stop-color="#50E7FF"/>
</linearGradient>
</defs>
</svg>
