<svg width="297" height="264" viewBox="0 0 297 264" fill="none" xmlns="http://www.w3.org/2000/svg">
<path fill-rule="evenodd" clip-rule="evenodd" d="M242.432 264C244.403 264 246 262.403 246 260.432V158.361C246 155.712 243.216 153.983 240.823 155.116C184.662 181.724 113.301 195.362 50.881 190.604C48.7916 190.445 47 192.079 47 194.174C47 218.006 47 249.915 47 260.457C47 262.427 48.5974 264 50.568 264H242.432ZM245.121 99.6255C245.723 99.0015 246.002 98.1561 245.993 97.2891C244.62 -34.4982 47 -31.4652 47 107.495C47 107.495 47 107.495 47 107.495C47 107.495 47 128.625 47 139.385C47 140.971 47.9982 142.356 49.541 142.727C95.7049 153.819 219.108 126.589 245.121 99.6255Z" fill="url(#paint0_linear_137_1608)"/>
<path fill-rule="evenodd" clip-rule="evenodd" d="M242.432 264C244.403 264 246 262.403 246 260.432V158.361C246 155.712 243.216 153.983 240.823 155.116C184.662 181.724 113.301 195.362 50.881 190.604C48.7916 190.445 47 192.079 47 194.174C47 218.006 47 249.915 47 260.457C47 262.427 48.5974 264 50.568 264H242.432ZM245.121 99.6255C245.723 99.0015 246.002 98.1561 245.993 97.2891C244.62 -34.4982 47 -31.4652 47 107.495C47 107.495 47 107.495 47 107.495C47 107.495 47 128.625 47 139.385C47 140.971 47.9982 142.356 49.541 142.727C95.7049 153.819 219.108 126.589 245.121 99.6255Z" fill="white"/>
<path d="M153.898 148.375C83.7712 164.629 26.0977 163.089 22.5663 144.941C20.9981 136.87 23.8115 129.816 40.9147 119.954C41.9868 119.336 42.6816 118.22 42.737 116.984L42.7711 116.225C42.893 113.504 40.0397 111.664 37.6373 112.947C9.42899 128.015 0.806155 140.921 3.45383 154.523C8.3609 177.746 78.1076 186.728 157.449 167.635C239.836 148.543 301.634 115.612 296.727 90.3834C294.061 80.4793 283.791 72.3348 252.188 71.1333C249.681 71.038 247.944 73.5843 248.912 75.8994V75.8994C249.426 77.1293 250.603 77.9521 251.931 78.0642C270.811 79.6578 272.818 86.7545 273.465 90.0851C276.995 108.236 224.023 132.126 153.898 148.375Z" fill="white"/>
<defs>
<linearGradient id="paint0_linear_137_1608" x1="238.814" y1="11.7149" x2="31.87" y2="43.3919" gradientUnits="userSpaceOnUse">
<stop stop-color="#ECECEC" stop-opacity="0.65"/>
<stop offset="0.442706" stop-color="white"/>
<stop offset="1" stop-color="#FEFEFE" stop-opacity="0.85"/>
</linearGradient>
</defs>
</svg>
