<svg width="488" height="104" viewBox="0 0 488 104" fill="none" xmlns="http://www.w3.org/2000/svg">
<path fill-rule="evenodd" clip-rule="evenodd" d="M18.7568 53.2231C18.7568 39.1173 30.3552 27.625 44.653 27.625C58.9259 27.625 70.5491 39.1155 70.5491 53.2231V53.2656L70.5056 54.6757C70.4849 55.2516 70.2466 56.3213 69.1409 56.9783C68.215 57.5285 67.3309 57.3623 67.1191 57.3193C66.6219 57.2182 66.2632 56.9978 66.2312 56.9781L66.229 56.9768C66.0664 56.8812 65.9311 56.779 65.8976 56.7537L65.8933 56.7504C65.835 56.7066 65.7433 56.6349 65.667 56.5753C65.6353 56.5505 65.6062 56.5277 65.5833 56.51C65.3701 56.3445 65.0699 56.1173 64.6817 55.8598C63.8992 55.3408 62.7724 54.7074 61.3708 54.2618C58.7004 53.4128 54.8042 53.1572 50.0031 56.2425C45.1365 60.3443 44.59 64.7649 45.1383 68.238C45.4252 70.0553 46.0256 71.6431 46.5619 72.792C46.8276 73.3611 47.0728 73.8125 47.2486 74.1225C47.3168 74.2426 47.3707 74.3349 47.4202 74.4197C47.4371 74.4486 47.4535 74.4766 47.4697 74.5045C47.4917 74.5424 47.5408 74.6266 47.5842 74.7089L47.5858 74.712C47.6007 74.74 47.6704 74.8716 47.7341 75.0382C47.7341 75.0382 47.7353 75.0413 47.7362 75.0435C47.7569 75.0967 47.8797 75.4119 47.9103 75.8262C47.9233 76.0034 47.9639 76.6561 47.5731 77.3633C47.3733 77.6742 46.8238 78.2315 46.476 78.4586C46.1197 78.6243 45.4249 78.7941 45.1017 78.8125H43.9685L43.9298 78.8114C29.9671 78.4317 18.7568 67.1146 18.7568 53.2231ZM44.653 33.1889C33.469 33.1889 24.3864 42.1855 24.3864 53.2231C24.3864 62.8826 31.3154 70.9536 40.5228 72.8406C40.1406 71.7401 39.794 70.477 39.576 69.0958C38.7744 64.0185 39.761 57.4732 46.5067 51.8781L46.6298 51.776L46.7639 51.6884C53.1776 47.4979 58.9214 47.6384 63.0948 48.9653C63.6147 49.1306 64.1064 49.3128 64.5686 49.5047C62.7969 40.2354 54.5311 33.1889 44.653 33.1889ZM69.2959 52.3179C69.3135 52.3306 69.3174 52.334 69.3034 52.3235C69.3009 52.3216 69.2984 52.3198 69.2959 52.3179Z" fill="white"/>
<path fill-rule="evenodd" clip-rule="evenodd" d="M74.5701 71.3882C71.4489 80.7569 61.2284 85.8666 51.7483 82.7945C42.2461 79.7152 37.0998 69.6104 40.2221 60.2385C43.3432 50.8703 53.5492 45.7554 63.0439 48.8323C72.5301 51.9064 77.6946 62.0099 74.5701 71.3882ZM69.2915 69.6682C67.1295 76.1573 60.0451 79.6991 53.4789 77.5712C46.9007 75.4395 43.3388 68.4478 45.5008 61.9586C47.6635 55.4671 54.7352 51.9238 61.3133 54.0555C67.8796 56.1834 71.4542 63.1767 69.2915 69.6682Z" fill="white"/>
<path fill-rule="evenodd" clip-rule="evenodd" d="M84.1094 97.0682V44.805C84.1094 25.1279 70.4044 6.93176 45.8864 6.93176C21.3684 6.93176 7.66341 25.1279 7.66341 44.805V97.0682H84.1094ZM45.8864 0C20.9146 0 0.670898 20.0599 0.670898 44.805V97.8823C0.670898 101.261 3.43496 104 6.84459 104H84.9282C88.3378 104 91.1019 101.261 91.1019 97.8823V44.805C91.1019 20.0599 70.8582 0 45.8864 0Z" fill="white"/>
<path d="M162.047 84.0388L161.967 50.3967L145.459 78.1114H139.609L123.181 51.1176V84.0388H111V27.9687H121.738L142.734 62.8123L163.409 27.9687H174.067L174.228 84.0388H162.047Z" fill="white"/>
<path d="M186.655 40.9449H199.156V84.0388H186.655V40.9449Z" fill="white"/>
<path d="M236.963 40.3041C242.306 40.3041 246.606 41.9061 249.865 45.1101C253.177 48.3141 254.834 53.0667 254.834 59.368V84.0388H242.332V61.2904C242.332 57.8728 241.584 55.3362 240.089 53.6808C238.593 51.972 236.429 51.1176 233.597 51.1176C230.445 51.1176 227.935 52.1055 226.065 54.0813C224.195 56.0037 223.26 58.8874 223.26 62.7322V84.0388H210.759V40.9449H222.699V45.9912C224.355 44.1756 226.412 42.7872 228.869 41.826C231.327 40.8114 234.025 40.3041 236.963 40.3041Z" fill="white"/>
<path d="M293.973 81.9562C292.744 82.864 291.221 83.5582 289.405 84.0388C287.642 84.466 285.772 84.6796 283.795 84.6796C278.667 84.6796 274.687 83.3713 271.855 80.7547C269.077 78.1381 267.688 74.2933 267.688 69.2203V51.5181H261.037V41.9061H267.688V31.413H280.189V41.9061H290.928V51.5181H280.189V69.0601C280.189 70.8757 280.643 72.2908 281.552 73.3054C282.513 74.2666 283.849 74.7472 285.558 74.7472C287.535 74.7472 289.218 74.2132 290.607 73.1452L293.973 81.9562Z" fill="white"/>
<path d="M339.776 55.1227H351.637V77.8711C348.591 80.1673 345.065 81.9295 341.059 83.1577C337.052 84.3859 333.018 85 328.958 85C323.135 85 317.899 83.7718 313.251 81.3154C308.603 78.8056 304.944 75.3613 302.273 70.9825C299.655 66.5503 298.346 61.5574 298.346 56.0037C298.346 50.4501 299.655 45.4839 302.273 41.1051C304.944 36.6729 308.63 33.2286 313.331 30.7722C318.033 28.2624 323.322 27.0075 329.198 27.0075C334.113 27.0075 338.574 27.8352 342.581 29.4906C346.588 31.146 349.954 33.549 352.678 36.6996L344.344 44.3892C340.337 40.1706 335.502 38.0613 329.839 38.0613C326.26 38.0613 323.081 38.8089 320.303 40.3041C317.525 41.7993 315.361 43.9086 313.812 46.632C312.263 49.3554 311.488 52.4793 311.488 56.0037C311.488 59.4748 312.263 62.572 313.812 65.2954C315.361 68.0188 317.498 70.1548 320.223 71.7034C323.001 73.1986 326.153 73.9462 329.679 73.9462C333.419 73.9462 336.785 73.1452 339.776 71.5432V55.1227Z" fill="white"/>
<path d="M380.204 40.3041C386.882 40.3041 392.011 41.9061 395.59 45.1101C399.17 48.2607 400.959 53.04 400.959 59.4481V84.0388H389.259V78.6721C386.909 82.6771 382.528 84.6796 376.117 84.6796C372.805 84.6796 369.92 84.1189 367.462 82.9975C365.058 81.8761 363.215 80.3275 361.933 78.3517C360.651 76.3759 360.01 74.1331 360.01 71.6233C360.01 67.6183 361.505 64.4677 364.497 62.1715C367.542 59.8753 372.217 58.7272 378.521 58.7272H388.458C388.458 56.0038 387.63 53.9211 385.974 52.4793C384.318 50.9841 381.833 50.2365 378.521 50.2365C376.224 50.2365 373.953 50.6103 371.71 51.3579C369.519 52.0521 367.649 53.0133 366.1 54.2415L361.612 45.5106C363.963 43.8552 366.768 42.5736 370.027 41.6658C373.339 40.758 376.731 40.3041 380.204 40.3041ZM379.242 76.2691C381.379 76.2691 383.276 75.7885 384.932 74.8273C386.588 73.8127 387.763 72.3442 388.458 70.4218V66.0163H379.883C374.755 66.0163 372.19 67.6984 372.19 71.0626C372.19 72.6646 372.805 73.9462 374.033 74.9074C375.316 75.8152 377.052 76.2691 379.242 76.2691Z" fill="white"/>
<path d="M440.081 81.9562C438.852 82.864 437.33 83.5582 435.513 84.0388C433.75 84.466 431.88 84.6796 429.904 84.6796C424.775 84.6796 420.795 83.3713 417.963 80.7547C415.185 78.1381 413.796 74.2933 413.796 69.2203V51.5181H407.145V41.9061H413.796V31.413H426.297V41.9061H437.036V51.5181H426.297V69.0601C426.297 70.8757 426.752 72.2908 427.66 73.3054C428.621 74.2666 429.957 74.7472 431.667 74.7472C433.643 74.7472 435.326 74.2132 436.715 73.1452L440.081 81.9562Z" fill="white"/>
<path d="M488 62.6521C488 62.8123 487.92 63.9337 487.76 66.0163H455.144C455.732 68.6863 457.121 70.7956 459.311 72.3442C461.502 73.8928 464.226 74.6671 467.485 74.6671C469.729 74.6671 471.706 74.3467 473.415 73.7059C475.178 73.0117 476.808 71.9437 478.303 70.5019L484.955 77.7109C480.895 82.3567 474.964 84.6796 467.165 84.6796C462.303 84.6796 458.002 83.7451 454.263 81.8761C450.523 79.9537 447.638 77.3104 445.608 73.9462C443.578 70.582 442.563 66.7639 442.563 62.4919C442.563 58.2733 443.551 54.4818 445.528 51.1176C447.558 47.7 450.309 45.0567 453.782 43.1877C457.308 41.2653 461.234 40.3041 465.562 40.3041C469.782 40.3041 473.602 41.2119 477.021 43.0275C480.44 44.8431 483.112 47.4597 485.035 50.8773C487.012 54.2415 488 58.1665 488 62.6521ZM465.642 49.7559C462.81 49.7559 460.433 50.5569 458.51 52.1589C456.586 53.7609 455.411 55.9504 454.984 58.7272H476.22C475.793 56.0038 474.617 53.841 472.694 52.239C470.771 50.5836 468.42 49.7559 465.642 49.7559Z" fill="white"/>
<path d="M186.655 40.9449H199.156V84.0388H186.655V40.9449Z" fill="white"/>
<path d="M186.655 28H199.157V37.0939H186.655V28Z" fill="white"/>
<path d="M186.655 28H199.157V37.0939H186.655V28Z" fill="white"/>
</svg>
