<svg width="318" height="430" viewBox="0 0 318 430" fill="none" xmlns="http://www.w3.org/2000/svg">
<path d="M9 0H0V416C0 416 14 417.5 14 429.5H17.5V428H22H32V429.5H36V428H47V429.5H50V428H60.5V429.5H64V428H74.5V429.5H78V428H88.5V429.5H92V428H102.5V429.5H106V428H116.5V429.5H120V428H130.5V429.5H134V428H144.5V429.5H148V428H158.5V429.5H162V428H172.5V429.5H175.5V428H186V429.5H189.5V428H200.5V429.5H203.5V428H214V429.5H217.5V428H228V429.5H231.5V428H242V429.5H245.5V428H256V429.5H259.5V428H270V429.5H273.5V428H284V429.5H287.5V428H301V429.5H304C304 417.5 318 415.5 318 415.5V0H309C309 0 309 10 298 10C288 10 288 0 288 0H278C278 0 278 10 267 10C257 10 257 0 257 0H247C247 0 247 10 236 10C226 10 226 0 226 0H216C216 0 216 10 205 10C195 10 195 0 195 0H185C185 0 185 10 174 10C164 10 164 0 164 0H154C154 0 154 10 143 10C133 10 133 0 133 0H123C123 0 123 10 112 10C102 10 102 0 102 0H92C92 0 92 10 81 10C71 10 71 0 71 0H61C61 0 61 10 50 10C40 10 40 0 40 0H30C30 0 30 10 19 10C9 10 9 0 9 0Z" fill="black"/>
<path d="M24.9041 410.904L27.75 413.75M23.6667 409.667L27.75 405.583M23.6667 409.667L21.9874 411.346M23.6667 409.667L21.9874 407.987M21.9874 411.346C21.6707 411.029 21.2332 410.833 20.75 410.833C19.7835 410.833 19 411.617 19 412.583C19 413.55 19.7835 414.333 20.75 414.333C21.7165 414.333 22.5 413.55 22.5 412.583C22.5 412.1 22.3041 411.663 21.9874 411.346ZM21.9874 407.987C22.3041 407.671 22.5 407.233 22.5 406.75C22.5 405.784 21.7165 405 20.75 405C19.7835 405 19 405.784 19 406.75C19 407.716 19.7835 408.5 20.75 408.5C21.2332 408.5 21.6707 408.304 21.9874 407.987Z" stroke="white" stroke-linecap="round"/>
<path opacity="0.11" d="M0 84H318V0H309C309 0 309 10 298 10C288 10 288 0 288 0H278C278 0 278 10 267 10C257 10 257 0 257 0H247C247 0 247 10 236 10C226 10 226 0 226 0H216C216 0 216 10 205 10C195 10 195 0 195 0H185C185 0 185 10 174 10C164 10 164 0 164 0H154C154 0 154 10 143 10C133 10 133 0 133 0H123C123 0 123 10 112 10C102 10 102 0 102 0H92C92 0 92 10 81 10C71 10 71 0 71 0H61C61 0 61 10 50 10C40 10 40 0 40 0H30C30 0 30 10 19 10C9 10 9 0 9 0H0V84Z" fill="white"/>
<path d="M24.832 36.92H22.048V35.6H29.176V36.92H26.392V44H24.832V36.92ZM32.4265 44.084C31.7785 44.084 31.1945 43.944 30.6745 43.664C30.1545 43.384 29.7465 42.996 29.4505 42.5C29.1625 41.996 29.0185 41.428 29.0185 40.796C29.0185 40.164 29.1625 39.6 29.4505 39.104C29.7465 38.608 30.1545 38.22 30.6745 37.94C31.1945 37.66 31.7785 37.52 32.4265 37.52C33.0825 37.52 33.6705 37.66 34.1905 37.94C34.7105 38.22 35.1145 38.608 35.4025 39.104C35.6985 39.6 35.8465 40.164 35.8465 40.796C35.8465 41.428 35.6985 41.996 35.4025 42.5C35.1145 42.996 34.7105 43.384 34.1905 43.664C33.6705 43.944 33.0825 44.084 32.4265 44.084ZM32.4265 42.8C32.9785 42.8 33.4345 42.616 33.7945 42.248C34.1545 41.88 34.3345 41.396 34.3345 40.796C34.3345 40.196 34.1545 39.712 33.7945 39.344C33.4345 38.976 32.9785 38.792 32.4265 38.792C31.8745 38.792 31.4185 38.976 31.0585 39.344C30.7065 39.712 30.5305 40.196 30.5305 40.796C30.5305 41.396 30.7065 41.88 31.0585 42.248C31.4185 42.616 31.8745 42.8 32.4265 42.8ZM39.8969 41.252L38.7809 42.308V44H37.2809V35.096H38.7809V40.472L41.8889 37.592H43.6889L41.0129 40.28L43.9409 44H42.1169L39.8969 41.252ZM50.6643 40.832C50.6643 40.936 50.6563 41.084 50.6403 41.276H45.6123C45.7003 41.748 45.9283 42.124 46.2963 42.404C46.6723 42.676 47.1363 42.812 47.6883 42.812C48.3923 42.812 48.9723 42.58 49.4283 42.116L50.2323 43.04C49.9443 43.384 49.5803 43.644 49.1403 43.82C48.7003 43.996 48.2043 44.084 47.6523 44.084C46.9483 44.084 46.3283 43.944 45.7923 43.664C45.2563 43.384 44.8403 42.996 44.5443 42.5C44.2563 41.996 44.1123 41.428 44.1123 40.796C44.1123 40.172 44.2523 39.612 44.5323 39.116C44.8203 38.612 45.2163 38.22 45.7203 37.94C46.2243 37.66 46.7923 37.52 47.4243 37.52C48.0483 37.52 48.6043 37.66 49.0923 37.94C49.5883 38.212 49.9723 38.6 50.2443 39.104C50.5243 39.6 50.6643 40.176 50.6643 40.832ZM47.4243 38.72C46.9443 38.72 46.5363 38.864 46.2003 39.152C45.8723 39.432 45.6723 39.808 45.6003 40.28H49.2363C49.1723 39.816 48.9763 39.44 48.6483 39.152C48.3203 38.864 47.9123 38.72 47.4243 38.72ZM55.7411 37.52C56.5491 37.52 57.1971 37.756 57.6851 38.228C58.1731 38.7 58.4171 39.4 58.4171 40.328V44H56.9171V40.52C56.9171 39.96 56.7851 39.54 56.5211 39.26C56.2571 38.972 55.8811 38.828 55.3931 38.828C54.8411 38.828 54.4051 38.996 54.0851 39.332C53.7651 39.66 53.6051 40.136 53.6051 40.76V44H52.1051V37.592H53.5331V38.42C53.7811 38.124 54.0931 37.9 54.4691 37.748C54.8451 37.596 55.2691 37.52 55.7411 37.52ZM69.5163 39.704H70.9923V43.052C70.5603 43.396 70.0563 43.66 69.4803 43.844C68.9043 44.028 68.3123 44.12 67.7043 44.12C66.8483 44.12 66.0763 43.936 65.3883 43.568C64.7003 43.192 64.1603 42.676 63.7683 42.02C63.3763 41.364 63.1803 40.624 63.1803 39.8C63.1803 38.976 63.3763 38.236 63.7683 37.58C64.1603 36.924 64.7003 36.412 65.3883 36.044C66.0843 35.668 66.8643 35.48 67.7283 35.48C68.4323 35.48 69.0723 35.596 69.6483 35.828C70.2243 36.06 70.7083 36.4 71.1003 36.848L70.1163 37.808C69.4763 37.168 68.7043 36.848 67.8003 36.848C67.2083 36.848 66.6803 36.972 66.2163 37.22C65.7603 37.468 65.4003 37.816 65.1363 38.264C64.8803 38.712 64.7523 39.224 64.7523 39.8C64.7523 40.36 64.8803 40.864 65.1363 41.312C65.4003 41.76 65.7603 42.112 66.2163 42.368C66.6803 42.624 67.2043 42.752 67.7883 42.752C68.4443 42.752 69.0203 42.608 69.5163 42.32V39.704ZM75.3539 37.52C76.2979 37.52 77.0179 37.748 77.5139 38.204C78.0179 38.652 78.2699 39.332 78.2699 40.244V44H76.8539V43.22C76.6699 43.5 76.4059 43.716 76.0619 43.868C75.7259 44.012 75.3179 44.084 74.8379 44.084C74.3579 44.084 73.9379 44.004 73.5779 43.844C73.2179 43.676 72.9379 43.448 72.7379 43.16C72.5459 42.864 72.4499 42.532 72.4499 42.164C72.4499 41.588 72.6619 41.128 73.0859 40.784C73.5179 40.432 74.1939 40.256 75.1139 40.256H76.7699V40.16C76.7699 39.712 76.6339 39.368 76.3619 39.128C76.0979 38.888 75.7019 38.768 75.1739 38.768C74.8139 38.768 74.4579 38.824 74.1059 38.936C73.7619 39.048 73.4699 39.204 73.2299 39.404L72.6419 38.312C72.9779 38.056 73.3819 37.86 73.8539 37.724C74.3259 37.588 74.8259 37.52 75.3539 37.52ZM75.1499 42.992C75.5259 42.992 75.8579 42.908 76.1459 42.74C76.4419 42.564 76.6499 42.316 76.7699 41.996V41.252H75.2219C74.3579 41.252 73.9259 41.536 73.9259 42.104C73.9259 42.376 74.0339 42.592 74.2499 42.752C74.4659 42.912 74.7659 42.992 75.1499 42.992ZM84.0469 43.652C83.8709 43.796 83.6549 43.904 83.3989 43.976C83.1509 44.048 82.8869 44.084 82.6069 44.084C81.9029 44.084 81.3589 43.9 80.9749 43.532C80.5909 43.164 80.3989 42.628 80.3989 41.924V38.84H79.3429V37.64H80.3989V36.176H81.8989V37.64H83.6149V38.84H81.8989V41.888C81.8989 42.2 81.9749 42.44 82.1269 42.608C82.2789 42.768 82.4989 42.848 82.7869 42.848C83.1229 42.848 83.4029 42.76 83.6269 42.584L84.0469 43.652ZM91.0939 40.832C91.0939 40.936 91.0859 41.084 91.0699 41.276H86.0419C86.1299 41.748 86.3579 42.124 86.7259 42.404C87.1019 42.676 87.5659 42.812 88.1179 42.812C88.8219 42.812 89.4019 42.58 89.8579 42.116L90.6619 43.04C90.3739 43.384 90.0099 43.644 89.5699 43.82C89.1299 43.996 88.6339 44.084 88.0819 44.084C87.3779 44.084 86.7579 43.944 86.2219 43.664C85.6859 43.384 85.2699 42.996 84.9739 42.5C84.6859 41.996 84.5419 41.428 84.5419 40.796C84.5419 40.172 84.6819 39.612 84.9619 39.116C85.2499 38.612 85.6459 38.22 86.1499 37.94C86.6539 37.66 87.2219 37.52 87.8539 37.52C88.4779 37.52 89.0339 37.66 89.5219 37.94C90.0179 38.212 90.4019 38.6 90.6739 39.104C90.9539 39.6 91.0939 40.176 91.0939 40.832ZM87.8539 38.72C87.3739 38.72 86.9659 38.864 86.6299 39.152C86.3019 39.432 86.1019 39.808 86.0299 40.28H89.6659C89.6019 39.816 89.4059 39.44 89.0779 39.152C88.7499 38.864 88.3419 38.72 87.8539 38.72ZM98.8108 35.096V44H97.3708V43.172C97.1228 43.476 96.8148 43.704 96.4468 43.856C96.0868 44.008 95.6868 44.084 95.2468 44.084C94.6308 44.084 94.0748 43.948 93.5788 43.676C93.0908 43.404 92.7068 43.02 92.4268 42.524C92.1468 42.02 92.0068 41.444 92.0068 40.796C92.0068 40.148 92.1468 39.576 92.4268 39.08C92.7068 38.584 93.0908 38.2 93.5788 37.928C94.0748 37.656 94.6308 37.52 95.2468 37.52C95.6708 37.52 96.0588 37.592 96.4108 37.736C96.7628 37.88 97.0628 38.096 97.3108 38.384V35.096H98.8108ZM95.4268 42.8C95.7868 42.8 96.1108 42.72 96.3988 42.56C96.6868 42.392 96.9148 42.156 97.0828 41.852C97.2508 41.548 97.3348 41.196 97.3348 40.796C97.3348 40.396 97.2508 40.044 97.0828 39.74C96.9148 39.436 96.6868 39.204 96.3988 39.044C96.1108 38.876 95.7868 38.792 95.4268 38.792C95.0668 38.792 94.7428 38.876 94.4548 39.044C94.1668 39.204 93.9388 39.436 93.7708 39.74C93.6028 40.044 93.5188 40.396 93.5188 40.796C93.5188 41.196 93.6028 41.548 93.7708 41.852C93.9388 42.156 94.1668 42.392 94.4548 42.56C94.7428 42.72 95.0668 42.8 95.4268 42.8ZM105.937 36.92H103.153V35.6H110.281V36.92H107.497V44H105.937V36.92ZM111.156 37.592H112.656V44H111.156V37.592ZM111.912 36.536C111.64 36.536 111.412 36.452 111.228 36.284C111.044 36.108 110.952 35.892 110.952 35.636C110.952 35.38 111.044 35.168 111.228 35C111.412 34.824 111.64 34.736 111.912 34.736C112.184 34.736 112.412 34.82 112.596 34.988C112.78 35.148 112.872 35.352 112.872 35.6C112.872 35.864 112.78 36.088 112.596 36.272C112.42 36.448 112.192 36.536 111.912 36.536ZM117.565 44.084C116.901 44.084 116.305 43.944 115.777 43.664C115.249 43.384 114.837 42.996 114.541 42.5C114.245 41.996 114.097 41.428 114.097 40.796C114.097 40.164 114.245 39.6 114.541 39.104C114.837 38.608 115.245 38.22 115.765 37.94C116.293 37.66 116.893 37.52 117.565 37.52C118.197 37.52 118.749 37.648 119.221 37.904C119.701 38.16 120.061 38.528 120.301 39.008L119.149 39.68C118.965 39.384 118.733 39.164 118.453 39.02C118.181 38.868 117.881 38.792 117.553 38.792C116.993 38.792 116.529 38.976 116.161 39.344C115.793 39.704 115.609 40.188 115.609 40.796C115.609 41.404 115.789 41.892 116.149 42.26C116.517 42.62 116.985 42.8 117.553 42.8C117.881 42.8 118.181 42.728 118.453 42.584C118.733 42.432 118.965 42.208 119.149 41.912L120.301 42.584C120.053 43.064 119.689 43.436 119.209 43.7C118.737 43.956 118.189 44.084 117.565 44.084ZM124.155 41.252L123.039 42.308V44H121.539V35.096H123.039V40.472L126.147 37.592H127.947L125.271 40.28L128.199 44H126.375L124.155 41.252ZM134.922 40.832C134.922 40.936 134.914 41.084 134.898 41.276H129.87C129.958 41.748 130.186 42.124 130.554 42.404C130.93 42.676 131.394 42.812 131.946 42.812C132.65 42.812 133.23 42.58 133.686 42.116L134.49 43.04C134.202 43.384 133.838 43.644 133.398 43.82C132.958 43.996 132.462 44.084 131.91 44.084C131.206 44.084 130.586 43.944 130.05 43.664C129.514 43.384 129.098 42.996 128.802 42.5C128.514 41.996 128.37 41.428 128.37 40.796C128.37 40.172 128.51 39.612 128.79 39.116C129.078 38.612 129.474 38.22 129.978 37.94C130.482 37.66 131.05 37.52 131.682 37.52C132.306 37.52 132.862 37.66 133.35 37.94C133.846 38.212 134.23 38.6 134.502 39.104C134.782 39.6 134.922 40.176 134.922 40.832ZM131.682 38.72C131.202 38.72 130.794 38.864 130.458 39.152C130.13 39.432 129.93 39.808 129.858 40.28H133.494C133.43 39.816 133.234 39.44 132.906 39.152C132.578 38.864 132.17 38.72 131.682 38.72ZM140.215 43.652C140.039 43.796 139.823 43.904 139.567 43.976C139.319 44.048 139.055 44.084 138.775 44.084C138.071 44.084 137.527 43.9 137.143 43.532C136.759 43.164 136.567 42.628 136.567 41.924V38.84H135.511V37.64H136.567V36.176H138.067V37.64H139.783V38.84H138.067V41.888C138.067 42.2 138.143 42.44 138.295 42.608C138.447 42.768 138.667 42.848 138.955 42.848C139.291 42.848 139.571 42.76 139.795 42.584L140.215 43.652Z" fill="white"/>
<path d="M27.88 60.704C27.544 61.656 26.892 62.132 25.924 62.132C24.956 62.132 24.16 61.78 23.536 61.076C22.92 60.372 22.612 59.424 22.612 58.232C22.612 57.04 22.948 56.092 23.62 55.388C24.3 54.684 25.144 54.332 26.152 54.332C26.744 54.332 27.26 54.452 27.7 54.692C28.148 54.932 28.532 55.316 28.852 55.844L27.94 56.156C27.42 55.508 26.812 55.184 26.116 55.184C25.42 55.184 24.828 55.468 24.34 56.036C23.86 56.604 23.62 57.344 23.62 58.256C23.62 59.16 23.828 59.888 24.244 60.44C24.66 60.992 25.22 61.268 25.924 61.268C26.5 61.268 26.964 61.076 27.316 60.692C27.668 60.308 27.844 59.74 27.844 58.988V58.964L25.948 58.892V58.268H28.768V62H28L27.88 60.704ZM31.0064 56.252H31.9544V62H31.0064V56.252ZM31.4744 54.908C31.2824 54.908 31.1304 54.856 31.0184 54.752C30.9144 54.64 30.8624 54.496 30.8624 54.32C30.8624 54.136 30.9144 53.992 31.0184 53.888C31.1304 53.776 31.2824 53.72 31.4744 53.72C31.6664 53.72 31.8184 53.776 31.9304 53.888C32.0504 53.992 32.1104 54.136 32.1104 54.32C32.1104 54.496 32.0504 54.64 31.9304 54.752C31.8184 54.856 31.6664 54.908 31.4744 54.908ZM34.6043 56.264L36.3323 61.004L38.0723 56.264H39.1403L36.8603 62H35.8163L33.5363 56.264H34.6043ZM42.5475 61.364C43.3395 61.364 43.7915 61.016 43.9035 60.32H44.8755C44.7875 60.896 44.5315 61.344 44.1075 61.664C43.6915 61.976 43.1715 62.132 42.5475 62.132C41.7795 62.132 41.1555 61.86 40.6755 61.316C40.1955 60.764 39.9555 60.032 39.9555 59.12C39.9555 58.208 40.1955 57.48 40.6755 56.936C41.1635 56.392 41.8075 56.12 42.6075 56.12C43.4155 56.12 44.0155 56.432 44.4075 57.056C44.8075 57.68 44.9475 58.44 44.8275 59.336H40.9035C40.9035 59.928 41.0475 60.416 41.3355 60.8C41.6235 61.176 42.0275 61.364 42.5475 61.364ZM43.2435 57.02C43.0595 56.924 42.8355 56.876 42.5715 56.876C42.0835 56.876 41.6955 57.044 41.4075 57.38C41.1275 57.708 40.9635 58.12 40.9155 58.616H43.9755C43.9755 57.816 43.7315 57.284 43.2435 57.02ZM46.4433 57.668C46.4433 57.196 46.6433 56.82 47.0433 56.54C47.4513 56.26 47.9993 56.12 48.6873 56.12C49.3753 56.12 49.9113 56.264 50.2953 56.552C50.6873 56.84 50.8913 57.204 50.9073 57.644H49.9833C49.9113 57.124 49.4713 56.864 48.6633 56.864C48.2713 56.864 47.9673 56.952 47.7513 57.128C47.5433 57.304 47.4393 57.496 47.4393 57.704C47.4393 57.904 47.5193 58.076 47.6793 58.22C47.8393 58.356 48.0953 58.476 48.4473 58.58L49.5993 58.964C50.0873 59.116 50.4593 59.312 50.7153 59.552C50.9793 59.784 51.1113 60.108 51.1113 60.524C51.1113 60.932 50.8993 61.304 50.4753 61.64C50.0513 61.968 49.4593 62.132 48.6992 62.132C47.9393 62.132 47.3473 61.964 46.9233 61.628C46.4993 61.284 46.2753 60.844 46.2513 60.308H47.1633C47.1793 60.668 47.3233 60.94 47.5953 61.124C47.8753 61.3 48.2233 61.388 48.6393 61.388C49.0553 61.388 49.3993 61.3 49.6713 61.124C49.9433 60.948 50.0793 60.74 50.0793 60.5C50.0793 60.252 49.9993 60.064 49.8393 59.936C49.6793 59.808 49.4193 59.696 49.0592 59.6L47.9433 59.228C46.9433 58.932 46.4433 58.412 46.4433 57.668ZM59.471 58.28C59.471 57.76 59.363 57.388 59.147 57.164C58.931 56.94 58.615 56.828 58.199 56.828C57.791 56.828 57.459 56.912 57.203 57.08C56.955 57.24 56.831 57.496 56.831 57.848H55.787C55.787 56.968 56.259 56.424 57.203 56.216C57.491 56.152 57.803 56.12 58.139 56.12C58.851 56.12 59.407 56.3 59.807 56.66C60.207 57.02 60.407 57.568 60.407 58.304V62H59.591L59.495 61.04C59.143 61.768 58.507 62.132 57.587 62.132C56.971 62.132 56.475 61.96 56.099 61.616C55.731 61.272 55.547 60.844 55.547 60.332C55.547 59.82 55.751 59.42 56.159 59.132C56.575 58.844 57.091 58.7 57.707 58.7C58.323 58.7 58.911 58.804 59.471 59.012V58.28ZM59.471 59.612C58.903 59.452 58.407 59.372 57.983 59.372C57.559 59.372 57.215 59.448 56.951 59.6C56.687 59.752 56.555 59.992 56.555 60.32C56.555 61.04 56.963 61.4 57.779 61.4C58.243 61.4 58.639 61.236 58.967 60.908C59.303 60.572 59.471 60.14 59.471 59.612ZM64.5419 56.12C65.2219 56.12 65.7619 56.296 66.1619 56.648C66.5619 56.992 66.8219 57.424 66.9419 57.944L65.9819 58.028C65.8779 57.692 65.7099 57.432 65.4779 57.248C65.2459 57.056 64.9899 56.96 64.7099 56.96C64.1979 56.96 63.7819 57.152 63.4619 57.536C63.1499 57.92 62.9939 58.444 62.9939 59.108C62.9939 59.764 63.1459 60.292 63.4499 60.692C63.7619 61.092 64.1459 61.292 64.6019 61.292C65.0659 61.292 65.4099 61.188 65.6339 60.98C65.8659 60.764 65.9819 60.46 65.9819 60.068H66.9539C66.9539 60.684 66.7379 61.184 66.3059 61.568C65.8819 61.944 65.3259 62.132 64.6379 62.132C63.9099 62.132 63.2899 61.856 62.7779 61.304C62.2739 60.752 62.0219 60.02 62.0219 59.108C62.0219 58.188 62.2739 57.46 62.7779 56.924C63.2819 56.388 63.8699 56.12 64.5419 56.12ZM70.7177 56.12C71.3977 56.12 71.9377 56.296 72.3377 56.648C72.7377 56.992 72.9977 57.424 73.1177 57.944L72.1577 58.028C72.0537 57.692 71.8857 57.432 71.6537 57.248C71.4217 57.056 71.1657 56.96 70.8857 56.96C70.3737 56.96 69.9577 57.152 69.6377 57.536C69.3257 57.92 69.1697 58.444 69.1697 59.108C69.1697 59.764 69.3217 60.292 69.6257 60.692C69.9377 61.092 70.3217 61.292 70.7777 61.292C71.2417 61.292 71.5857 61.188 71.8097 60.98C72.0417 60.764 72.1577 60.46 72.1577 60.068H73.1297C73.1297 60.684 72.9137 61.184 72.4817 61.568C72.0577 61.944 71.5017 62.132 70.8137 62.132C70.0857 62.132 69.4657 61.856 68.9537 61.304C68.4497 60.752 68.1977 60.02 68.1977 59.108C68.1977 58.188 68.4497 57.46 68.9537 56.924C69.4577 56.388 70.0457 56.12 70.7177 56.12ZM76.9654 61.364C77.7574 61.364 78.2094 61.016 78.3214 60.32H79.2934C79.2054 60.896 78.9494 61.344 78.5254 61.664C78.1094 61.976 77.5894 62.132 76.9654 62.132C76.1974 62.132 75.5734 61.86 75.0934 61.316C74.6134 60.764 74.3734 60.032 74.3734 59.12C74.3734 58.208 74.6134 57.48 75.0934 56.936C75.5814 56.392 76.2254 56.12 77.0254 56.12C77.8334 56.12 78.4334 56.432 78.8254 57.056C79.2254 57.68 79.3654 58.44 79.2454 59.336H75.3214C75.3214 59.928 75.4654 60.416 75.7534 60.8C76.0414 61.176 76.4454 61.364 76.9654 61.364ZM77.6614 57.02C77.4774 56.924 77.2534 56.876 76.9894 56.876C76.5014 56.876 76.1134 57.044 75.8254 57.38C75.5454 57.708 75.3814 58.12 75.3334 58.616H78.3934C78.3934 57.816 78.1494 57.284 77.6614 57.02ZM80.8612 57.668C80.8612 57.196 81.0612 56.82 81.4612 56.54C81.8692 56.26 82.4172 56.12 83.1052 56.12C83.7932 56.12 84.3292 56.264 84.7132 56.552C85.1052 56.84 85.3092 57.204 85.3252 57.644H84.4012C84.3292 57.124 83.8892 56.864 83.0812 56.864C82.6892 56.864 82.3852 56.952 82.1692 57.128C81.9612 57.304 81.8572 57.496 81.8572 57.704C81.8572 57.904 81.9372 58.076 82.0972 58.22C82.2572 58.356 82.5132 58.476 82.8652 58.58L84.0172 58.964C84.5052 59.116 84.8772 59.312 85.1332 59.552C85.3972 59.784 85.5292 60.108 85.5292 60.524C85.5292 60.932 85.3172 61.304 84.8932 61.64C84.4692 61.968 83.8772 62.132 83.1172 62.132C82.3572 62.132 81.7652 61.964 81.3412 61.628C80.9172 61.284 80.6932 60.844 80.6692 60.308H81.5812C81.5972 60.668 81.7412 60.94 82.0132 61.124C82.2932 61.3 82.6412 61.388 83.0572 61.388C83.4732 61.388 83.8172 61.3 84.0892 61.124C84.3612 60.948 84.4972 60.74 84.4972 60.5C84.4972 60.252 84.4172 60.064 84.2572 59.936C84.0972 59.808 83.8372 59.696 83.4772 59.6L82.3612 59.228C81.3612 58.932 80.8612 58.412 80.8612 57.668ZM87.1776 57.668C87.1776 57.196 87.3776 56.82 87.7776 56.54C88.1856 56.26 88.7336 56.12 89.4216 56.12C90.1096 56.12 90.6456 56.264 91.0296 56.552C91.4216 56.84 91.6256 57.204 91.6416 57.644H90.7176C90.6456 57.124 90.2056 56.864 89.3976 56.864C89.0056 56.864 88.7016 56.952 88.4856 57.128C88.2776 57.304 88.1736 57.496 88.1736 57.704C88.1736 57.904 88.2536 58.076 88.4136 58.22C88.5736 58.356 88.8296 58.476 89.1816 58.58L90.3336 58.964C90.8216 59.116 91.1936 59.312 91.4496 59.552C91.7136 59.784 91.8456 60.108 91.8456 60.524C91.8456 60.932 91.6336 61.304 91.2096 61.64C90.7856 61.968 90.1936 62.132 89.4336 62.132C88.6736 62.132 88.0816 61.964 87.6576 61.628C87.2336 61.284 87.0096 60.844 86.9856 60.308H87.8976C87.9136 60.668 88.0576 60.94 88.3296 61.124C88.6096 61.3 88.9576 61.388 89.3736 61.388C89.7896 61.388 90.1336 61.3 90.4056 61.124C90.6776 60.948 90.8136 60.74 90.8136 60.5C90.8136 60.252 90.7336 60.064 90.5736 59.936C90.4136 59.808 90.1536 59.696 89.7936 59.6L88.6776 59.228C87.6776 58.932 87.1776 58.412 87.1776 57.668ZM100.205 58.28C100.205 57.76 100.097 57.388 99.8814 57.164C99.6654 56.94 99.3494 56.828 98.9334 56.828C98.5254 56.828 98.1934 56.912 97.9374 57.08C97.6894 57.24 97.5654 57.496 97.5654 57.848H96.5214C96.5214 56.968 96.9934 56.424 97.9374 56.216C98.2254 56.152 98.5374 56.12 98.8734 56.12C99.5854 56.12 100.141 56.3 100.541 56.66C100.941 57.02 101.141 57.568 101.141 58.304V62H100.325L100.229 61.04C99.8774 61.768 99.2414 62.132 98.3214 62.132C97.7054 62.132 97.2094 61.96 96.8334 61.616C96.4654 61.272 96.2814 60.844 96.2814 60.332C96.2814 59.82 96.4854 59.42 96.8934 59.132C97.3094 58.844 97.8254 58.7 98.4414 58.7C99.0574 58.7 99.6454 58.804 100.205 59.012V58.28ZM100.205 59.612C99.6374 59.452 99.1414 59.372 98.7174 59.372C98.2934 59.372 97.9494 59.448 97.6854 59.6C97.4214 59.752 97.2894 59.992 97.2894 60.32C97.2894 61.04 97.6974 61.4 98.5134 61.4C98.9774 61.4 99.3734 61.236 99.7014 60.908C100.037 60.572 100.205 60.14 100.205 59.612ZM106.152 54.632C105.888 54.528 105.68 54.476 105.528 54.476C105.248 54.476 105.028 54.544 104.868 54.68C104.708 54.816 104.628 55.056 104.628 55.4V56.264H105.816V56.912H104.628V62H103.692V56.912H102.744V56.264H103.692V55.388C103.692 54.82 103.848 54.404 104.16 54.14C104.472 53.868 104.832 53.732 105.24 53.732C105.648 53.732 106.008 53.784 106.32 53.888L106.152 54.632ZM110.482 61.832C109.794 62.152 109.166 62.22 108.598 62.036C108.19 61.908 107.902 61.64 107.734 61.232C107.646 61.032 107.602 60.792 107.602 60.512V56.984H106.678V56.264H107.602V54.668H108.538V56.264H110.338V56.984H108.538V60.5C108.538 61.084 108.81 61.376 109.354 61.376C109.65 61.376 109.982 61.304 110.35 61.16L110.482 61.832ZM113.973 61.364C114.765 61.364 115.217 61.016 115.329 60.32H116.301C116.213 60.896 115.957 61.344 115.533 61.664C115.117 61.976 114.597 62.132 113.973 62.132C113.205 62.132 112.581 61.86 112.101 61.316C111.621 60.764 111.381 60.032 111.381 59.12C111.381 58.208 111.621 57.48 112.101 56.936C112.589 56.392 113.233 56.12 114.033 56.12C114.841 56.12 115.441 56.432 115.833 57.056C116.233 57.68 116.373 58.44 116.253 59.336H112.329C112.329 59.928 112.473 60.416 112.761 60.8C113.049 61.176 113.453 61.364 113.973 61.364ZM114.669 57.02C114.485 56.924 114.261 56.876 113.997 56.876C113.509 56.876 113.121 57.044 112.833 57.38C112.553 57.708 112.389 58.12 112.341 58.616H115.401C115.401 57.816 115.157 57.284 114.669 57.02ZM120.509 57.068C119.605 57.068 119.137 57.78 119.105 59.204V62H118.157V56.252H119.105V57.356C119.393 56.556 119.901 56.156 120.629 56.156C120.861 56.156 121.081 56.192 121.289 56.264L121.241 57.188C121.001 57.108 120.757 57.068 120.509 57.068ZM125.299 57.668C125.299 57.196 125.499 56.82 125.899 56.54C126.307 56.26 126.855 56.12 127.543 56.12C128.231 56.12 128.767 56.264 129.151 56.552C129.543 56.84 129.747 57.204 129.763 57.644H128.839C128.767 57.124 128.327 56.864 127.519 56.864C127.127 56.864 126.823 56.952 126.607 57.128C126.399 57.304 126.295 57.496 126.295 57.704C126.295 57.904 126.375 58.076 126.535 58.22C126.695 58.356 126.951 58.476 127.303 58.58L128.455 58.964C128.943 59.116 129.315 59.312 129.571 59.552C129.835 59.784 129.967 60.108 129.967 60.524C129.967 60.932 129.755 61.304 129.331 61.64C128.907 61.968 128.315 62.132 127.555 62.132C126.795 62.132 126.203 61.964 125.779 61.628C125.355 61.284 125.131 60.844 125.107 60.308H126.019C126.035 60.668 126.179 60.94 126.451 61.124C126.731 61.3 127.079 61.388 127.495 61.388C127.911 61.388 128.255 61.3 128.527 61.124C128.799 60.948 128.935 60.74 128.935 60.5C128.935 60.252 128.855 60.064 128.695 59.936C128.535 59.808 128.275 59.696 127.915 59.6L126.799 59.228C125.799 58.932 125.299 58.412 125.299 57.668ZM133.823 56.12C134.503 56.12 135.043 56.296 135.443 56.648C135.843 56.992 136.103 57.424 136.223 57.944L135.263 58.028C135.159 57.692 134.991 57.432 134.759 57.248C134.527 57.056 134.271 56.96 133.991 56.96C133.479 56.96 133.063 57.152 132.743 57.536C132.431 57.92 132.275 58.444 132.275 59.108C132.275 59.764 132.427 60.292 132.731 60.692C133.043 61.092 133.427 61.292 133.883 61.292C134.347 61.292 134.691 61.188 134.915 60.98C135.147 60.764 135.263 60.46 135.263 60.068H136.235C136.235 60.684 136.019 61.184 135.587 61.568C135.163 61.944 134.607 62.132 133.919 62.132C133.191 62.132 132.571 61.856 132.059 61.304C131.555 60.752 131.303 60.02 131.303 59.108C131.303 58.188 131.555 57.46 132.059 56.924C132.563 56.388 133.151 56.12 133.823 56.12ZM141.643 58.28C141.643 57.76 141.535 57.388 141.319 57.164C141.103 56.94 140.787 56.828 140.371 56.828C139.963 56.828 139.631 56.912 139.375 57.08C139.127 57.24 139.003 57.496 139.003 57.848H137.959C137.959 56.968 138.431 56.424 139.375 56.216C139.663 56.152 139.975 56.12 140.311 56.12C141.023 56.12 141.579 56.3 141.979 56.66C142.379 57.02 142.579 57.568 142.579 58.304V62H141.763L141.667 61.04C141.315 61.768 140.679 62.132 139.759 62.132C139.143 62.132 138.647 61.96 138.271 61.616C137.903 61.272 137.719 60.844 137.719 60.332C137.719 59.82 137.923 59.42 138.331 59.132C138.747 58.844 139.263 58.7 139.879 58.7C140.495 58.7 141.083 58.804 141.643 59.012V58.28ZM141.643 59.612C141.075 59.452 140.579 59.372 140.155 59.372C139.731 59.372 139.387 59.448 139.123 59.6C138.859 59.752 138.727 59.992 138.727 60.32C138.727 61.04 139.135 61.4 139.951 61.4C140.415 61.4 140.811 61.236 141.139 60.908C141.475 60.572 141.643 60.14 141.643 59.612ZM145.718 57.368C146.094 56.536 146.738 56.12 147.65 56.12C148.33 56.12 148.858 56.344 149.234 56.792C149.618 57.24 149.81 57.852 149.81 58.628V62H148.874V58.628C148.874 58.076 148.742 57.66 148.478 57.38C148.222 57.1 147.854 56.96 147.374 56.96C146.894 56.96 146.506 57.156 146.21 57.548C145.914 57.94 145.758 58.484 145.742 59.18V62H144.794V56.264H145.61L145.718 57.368ZM152.948 57.368C153.324 56.536 153.968 56.12 154.88 56.12C155.56 56.12 156.088 56.344 156.464 56.792C156.848 57.24 157.04 57.852 157.04 58.628V62H156.104V58.628C156.104 58.076 155.972 57.66 155.708 57.38C155.452 57.1 155.084 56.96 154.604 56.96C154.124 56.96 153.736 57.156 153.44 57.548C153.144 57.94 152.988 58.484 152.972 59.18V62H152.024V56.264H152.84L152.948 57.368ZM159.327 56.252H160.275V62H159.327V56.252ZM159.795 54.908C159.603 54.908 159.451 54.856 159.339 54.752C159.235 54.64 159.183 54.496 159.183 54.32C159.183 54.136 159.235 53.992 159.339 53.888C159.451 53.776 159.603 53.72 159.795 53.72C159.987 53.72 160.139 53.776 160.251 53.888C160.371 53.992 160.431 54.136 160.431 54.32C160.431 54.496 160.371 54.64 160.251 54.752C160.139 54.856 159.987 54.908 159.795 54.908ZM163.765 57.368C164.141 56.536 164.785 56.12 165.697 56.12C166.377 56.12 166.905 56.344 167.281 56.792C167.665 57.24 167.857 57.852 167.857 58.628V62H166.921V58.628C166.921 58.076 166.789 57.66 166.525 57.38C166.269 57.1 165.901 56.96 165.421 56.96C164.941 56.96 164.553 57.156 164.257 57.548C163.961 57.94 163.805 58.484 163.789 59.18V62H162.841V56.264H163.657L163.765 57.368ZM170.323 61.82C169.843 61.588 169.603 61.232 169.603 60.752C169.603 60.504 169.695 60.288 169.879 60.104C170.071 59.912 170.307 59.784 170.587 59.72C170.155 59.336 169.939 58.832 169.939 58.208C169.939 57.584 170.159 57.08 170.599 56.696C171.047 56.312 171.575 56.12 172.183 56.12C172.791 56.12 173.307 56.264 173.731 56.552C173.787 56.128 173.955 55.788 174.235 55.532C174.523 55.276 174.899 55.148 175.363 55.148L175.279 56.084C174.575 56.084 174.207 56.38 174.175 56.972C174.455 57.316 174.595 57.728 174.595 58.208C174.595 58.824 174.371 59.332 173.923 59.732C173.483 60.124 172.931 60.32 172.267 60.32C171.811 60.32 171.407 60.228 171.055 60.044C170.895 60.076 170.751 60.152 170.623 60.272C170.495 60.384 170.431 60.54 170.431 60.74C170.431 61.164 170.783 61.376 171.487 61.376H173.719C174.255 61.376 174.679 61.492 174.991 61.724C175.303 61.948 175.459 62.264 175.459 62.672C175.459 63.28 175.151 63.812 174.535 64.268C173.927 64.724 173.155 64.952 172.219 64.952C171.283 64.952 170.547 64.776 170.011 64.424C169.475 64.08 169.207 63.644 169.207 63.116C169.207 62.772 169.307 62.492 169.507 62.276C169.715 62.06 169.987 61.908 170.323 61.82ZM170.143 63.08C170.143 63.384 170.307 63.644 170.635 63.86C170.971 64.084 171.475 64.196 172.147 64.196C172.827 64.196 173.391 64.048 173.839 63.752C174.295 63.464 174.523 63.124 174.523 62.732C174.523 62.548 174.455 62.388 174.319 62.252C174.191 62.124 173.991 62.06 173.719 62.06H171.403C170.995 62.076 170.683 62.172 170.467 62.348C170.251 62.532 170.143 62.776 170.143 63.08ZM173.671 58.208C173.671 57.792 173.547 57.456 173.299 57.2C173.051 56.936 172.707 56.804 172.267 56.804C171.835 56.804 171.495 56.936 171.247 57.2C170.999 57.456 170.875 57.792 170.875 58.208C170.875 58.624 170.999 58.968 171.247 59.24C171.503 59.504 171.847 59.636 172.279 59.636C172.711 59.636 173.051 59.5 173.299 59.228C173.547 58.956 173.671 58.616 173.671 58.208ZM182.728 61.832C182.04 62.152 181.412 62.22 180.844 62.036C180.436 61.908 180.148 61.64 179.98 61.232C179.892 61.032 179.848 60.792 179.848 60.512V56.984H178.924V56.264H179.848V54.668H180.784V56.264H182.584V56.984H180.784V60.5C180.784 61.084 181.056 61.376 181.6 61.376C181.896 61.376 182.228 61.304 182.596 61.16L182.728 61.832ZM185.187 57.32C185.571 56.52 186.207 56.12 187.095 56.12C187.775 56.12 188.303 56.344 188.679 56.792C189.063 57.24 189.255 57.852 189.255 58.628V62H188.319V58.628C188.319 58.076 188.187 57.66 187.923 57.38C187.667 57.1 187.295 56.96 186.807 56.96C186.319 56.96 185.927 57.168 185.631 57.584C185.335 57.992 185.187 58.56 185.187 59.288V62H184.239V53.828H185.187V57.32ZM193.462 61.364C194.254 61.364 194.706 61.016 194.818 60.32H195.79C195.702 60.896 195.446 61.344 195.022 61.664C194.606 61.976 194.086 62.132 193.462 62.132C192.694 62.132 192.07 61.86 191.59 61.316C191.11 60.764 190.87 60.032 190.87 59.12C190.87 58.208 191.11 57.48 191.59 56.936C192.078 56.392 192.722 56.12 193.522 56.12C194.33 56.12 194.93 56.432 195.322 57.056C195.722 57.68 195.862 58.44 195.742 59.336H191.818C191.818 59.928 191.962 60.416 192.25 60.8C192.538 61.176 192.942 61.364 193.462 61.364ZM194.158 57.02C193.974 56.924 193.75 56.876 193.486 56.876C192.998 56.876 192.61 57.044 192.322 57.38C192.042 57.708 191.878 58.12 191.83 58.616H194.89C194.89 57.816 194.646 57.284 194.158 57.02ZM206.457 63.776C206.137 63.928 205.801 64.004 205.449 64.004C204.769 64.004 204.185 63.648 203.697 62.936L203.133 62.132C202.165 62.116 201.385 61.776 200.793 61.112C200.209 60.448 199.917 59.484 199.917 58.22C199.917 56.956 200.213 55.992 200.805 55.328C201.405 54.656 202.197 54.32 203.181 54.32C204.157 54.32 204.945 54.656 205.545 55.328C206.153 55.992 206.457 56.96 206.457 58.232C206.457 59.288 206.245 60.14 205.821 60.788C205.397 61.428 204.821 61.84 204.093 62.024L204.465 62.552C204.697 62.864 204.973 63.028 205.293 63.044C205.637 63.044 206.025 62.944 206.457 62.744V63.776ZM203.181 55.172C202.477 55.172 201.921 55.436 201.513 55.964C201.105 56.492 200.901 57.252 200.901 58.244C200.901 59.236 201.105 59.988 201.513 60.5C201.921 61.012 202.477 61.268 203.181 61.268C203.885 61.268 204.441 61.012 204.849 60.5C205.265 59.988 205.473 59.236 205.473 58.244C205.473 57.252 205.265 56.492 204.849 55.964C204.441 55.436 203.885 55.172 203.181 55.172ZM213.601 56.612C213.601 57.236 213.433 57.74 213.097 58.124C212.769 58.508 212.281 58.756 211.633 58.868L213.793 62H212.569L210.613 58.916H209.293V62H208.345V54.452H210.973C211.821 54.452 212.469 54.656 212.917 55.064C213.373 55.472 213.601 55.988 213.601 56.612ZM210.901 58.256C211.469 58.256 211.897 58.12 212.185 57.848C212.481 57.568 212.629 57.204 212.629 56.756C212.629 56.3 212.485 55.94 212.197 55.676C211.917 55.404 211.509 55.268 210.973 55.268H209.293V58.256H210.901ZM221.18 54.32C221.988 54.32 222.636 54.524 223.124 54.932C223.62 55.332 223.96 55.856 224.144 56.504L223.124 56.708C222.964 56.236 222.712 55.864 222.368 55.592C222.032 55.312 221.636 55.172 221.18 55.172C220.548 55.172 220.024 55.436 219.608 55.964C219.192 56.492 218.984 57.228 218.984 58.172C218.984 59.108 219.168 59.86 219.536 60.428C219.912 60.996 220.46 61.28 221.18 61.28C221.78 61.28 222.252 61.124 222.596 60.812C222.948 60.492 223.124 60.072 223.124 59.552H224.144C224.144 60.344 223.872 60.972 223.328 61.436C222.792 61.9 222.052 62.132 221.108 62.132C220.172 62.132 219.412 61.772 218.828 61.052C218.252 60.332 217.964 59.368 217.964 58.16C217.964 56.952 218.264 56.012 218.864 55.34C219.464 54.66 220.236 54.32 221.18 54.32ZM227.987 56.12C228.787 56.12 229.431 56.38 229.919 56.9C230.415 57.42 230.663 58.164 230.663 59.132C230.663 60.092 230.415 60.832 229.919 61.352C229.431 61.872 228.787 62.132 227.987 62.132C227.187 62.132 226.539 61.872 226.043 61.352C225.555 60.832 225.311 60.092 225.311 59.132C225.311 58.164 225.555 57.42 226.043 56.9C226.539 56.38 227.187 56.12 227.987 56.12ZM229.703 59.132C229.703 58.444 229.559 57.908 229.271 57.524C228.983 57.132 228.559 56.936 227.999 56.936C227.447 56.936 227.023 57.132 226.727 57.524C226.431 57.908 226.283 58.444 226.283 59.132C226.283 59.812 226.423 60.348 226.703 60.74C226.983 61.124 227.399 61.316 227.951 61.316C228.511 61.316 228.943 61.124 229.247 60.74C229.551 60.348 229.703 59.812 229.703 59.132ZM236.23 57.116V53.828H237.166V62H236.398L236.278 61.04C236.094 61.4 235.85 61.672 235.546 61.856C235.242 62.04 234.91 62.132 234.55 62.132C233.822 62.132 233.21 61.852 232.714 61.292C232.226 60.732 231.982 60.004 231.982 59.108C231.982 58.204 232.222 57.48 232.702 56.936C233.19 56.392 233.802 56.12 234.538 56.12C235.282 56.12 235.846 56.452 236.23 57.116ZM234.598 56.96C234.134 56.96 233.742 57.156 233.422 57.548C233.11 57.94 232.954 58.464 232.954 59.12C232.954 59.776 233.114 60.304 233.434 60.704C233.754 61.096 234.138 61.292 234.586 61.292C235.034 61.292 235.414 61.144 235.726 60.848C236.046 60.544 236.214 60.14 236.23 59.636V58.7C236.23 58.164 236.074 57.74 235.762 57.428C235.45 57.116 235.062 56.96 234.598 56.96ZM241.579 61.364C242.371 61.364 242.823 61.016 242.935 60.32H243.907C243.819 60.896 243.563 61.344 243.139 61.664C242.723 61.976 242.203 62.132 241.579 62.132C240.811 62.132 240.187 61.86 239.707 61.316C239.227 60.764 238.987 60.032 238.987 59.12C238.987 58.208 239.227 57.48 239.707 56.936C240.195 56.392 240.839 56.12 241.639 56.12C242.447 56.12 243.047 56.432 243.439 57.056C243.839 57.68 243.979 58.44 243.859 59.336H239.935C239.935 59.928 240.079 60.416 240.367 60.8C240.655 61.176 241.059 61.364 241.579 61.364ZM242.275 57.02C242.091 56.924 241.867 56.876 241.603 56.876C241.115 56.876 240.727 57.044 240.439 57.38C240.159 57.708 239.995 58.12 239.947 58.616H243.007C243.007 57.816 242.763 57.284 242.275 57.02Z" fill="white"/>
</svg>
