<svg width="318" height="322" viewBox="0 0 318 322" fill="none" xmlns="http://www.w3.org/2000/svg">
<path d="M318 14.5C318 14.5 304 13 304 0H301V1.5H287.5V0H284V1.5H273.5V0H270V1.5H259.5V0H256V1.5H245.5V0H242V1.5H231.5V0H228V1.5H217.5V0H214V1.5H203.5V0H200.5V1.5H189.5V0H186V1.5H175.5V0H172.5V1.5H162V0H158.5V1.5H148V0H144.5V1.5H134V0H130.5V1.5H120V0H116.5V1.5H106V0H102.5V1.5H92V0H88.5V1.5H78V0H74.5V1.5H64V0H60.5V1.5H50V0H47V1.5H36V0H32V1.5H28H17.5V0H14C14 13.5 0 15 0 15V321.5H9C9 321.5 9 310.5 19 310.5C30 310.5 30 321.5 30 321.5H40C40 321.5 40 310.5 50 310.5C61 310.5 61 321.5 61 321.5H71C71 321.5 71 310.5 81 310.5C92 310.5 92 321.5 92 321.5H102C102 321.5 102 310.5 112 310.5C123 310.5 123 321.5 123 321.5H133C133 321.5 133 310.5 143 310.5C154 310.5 154 321.5 154 321.5H164C164 321.5 164 310.5 174 310.5C185 310.5 185 321.5 185 321.5H195C195 321.5 195 310.5 205 310.5C216 310.5 216 321.5 216 321.5H226C226 321.5 226 310.5 236 310.5C247 310.5 247 321.5 247 321.5H257C257 321.5 257 310.5 267 310.5C278 310.5 278 321.5 278 321.5H288C288 321.5 288 310.5 298 310.5C309 310.5 309 321.5 309 321.5H318V14.5Z" fill="black"/>
</svg>
