<svg width="550" height="177" viewBox="0 0 550 177" fill="none" xmlns="http://www.w3.org/2000/svg">
<path fill-rule="evenodd" clip-rule="evenodd" d="M88.5 0C137.313 0 177 39.6486 177 88.5C177 137.351 137.313 177 88.5 177C39.6867 177 0 137.351 0 88.5C0 39.6486 39.6867 0 88.5 0Z" fill="#48A9A6"/>
<path fill-rule="evenodd" clip-rule="evenodd" d="M43.0752 61.3065H79.4432V43.1083H43.0752V61.3065Z" fill="white"/>
<path fill-rule="evenodd" clip-rule="evenodd" d="M97.5576 61.3065H133.926V43.1083H97.5576V61.3065Z" fill="white"/>
<path fill-rule="evenodd" clip-rule="evenodd" d="M133.926 97.6337H115.742V115.832H97.5576V134.03H133.926V97.6337Z" fill="white"/>
<path fill-rule="evenodd" clip-rule="evenodd" d="M79.4432 134.03V115.832H61.2592V97.6337H43.0752V134.03H79.4432Z" fill="white"/>
<path d="M231.109 62.6953H247.492L264.789 89.2031L282.297 62.6953L297.695 63.0469L272.312 99.3984L298.82 138H282.648L263.945 109.734L245.805 138H229.773L256.281 99.3984L231.109 62.6953ZM358.825 126.047C363.559 126.047 367.45 125.555 370.497 124.57C375.934 122.742 380.387 119.227 383.856 114.023C386.622 109.852 388.614 104.508 389.833 97.9922C390.536 94.1016 390.887 90.4922 390.887 87.1641C390.887 74.3672 388.333 64.4297 383.223 57.3516C378.161 50.2734 369.981 46.7344 358.684 46.7344H333.864V126.047H358.825ZM319.802 34.7109H361.637C375.841 34.7109 386.856 39.75 394.684 49.8281C401.669 58.9219 405.161 70.5703 405.161 84.7734C405.161 95.7422 403.098 105.656 398.973 114.516C391.708 130.172 379.216 138 361.497 138H319.802V34.7109ZM438.447 117.961C438.447 121.617 439.783 124.5 442.455 126.609C445.127 128.719 448.291 129.773 451.947 129.773C456.4 129.773 460.712 128.742 464.884 126.68C471.916 123.258 475.431 117.656 475.431 109.875V99.6797C473.884 100.664 471.892 101.484 469.455 102.141C467.017 102.797 464.627 103.266 462.283 103.547L454.619 104.531C450.025 105.141 446.58 106.102 444.283 107.414C440.392 109.617 438.447 113.133 438.447 117.961ZM469.103 92.3672C472.009 91.9922 473.955 90.7734 474.939 88.7109C475.502 87.5859 475.783 85.9688 475.783 83.8594C475.783 79.5469 474.236 76.4297 471.142 74.5078C468.095 72.5391 463.712 71.5547 457.994 71.5547C451.384 71.5547 446.697 73.3359 443.931 76.8984C442.384 78.8672 441.377 81.7969 440.908 85.6875H429.095C429.33 76.4062 432.33 69.9609 438.095 66.3516C443.908 62.6953 450.634 60.8672 458.275 60.8672C467.134 60.8672 474.33 62.5547 479.861 65.9297C485.345 69.3047 488.087 74.5547 488.087 81.6797V125.062C488.087 126.375 488.345 127.43 488.861 128.227C489.423 129.023 490.572 129.422 492.306 129.422C492.869 129.422 493.502 129.398 494.205 129.352C494.908 129.258 495.658 129.141 496.455 129V138.352C494.486 138.914 492.986 139.266 491.955 139.406C490.923 139.547 489.517 139.617 487.736 139.617C483.377 139.617 480.212 138.07 478.244 134.977C477.212 133.336 476.486 131.016 476.064 128.016C473.486 131.391 469.783 134.32 464.955 136.805C460.127 139.289 454.806 140.531 448.994 140.531C442.009 140.531 436.291 138.422 431.837 134.203C427.431 129.938 425.228 124.617 425.228 118.242C425.228 111.258 427.408 105.844 431.767 102C436.127 98.1562 441.845 95.7891 448.923 94.8984L469.103 92.3672ZM516.1 63.0469H528.967V138H516.1V63.0469ZM516.1 34.7109H528.967V49.0547H516.1V34.7109Z" fill="black"/>
</svg>
